<svg xmlns="http://www.w3.org/2000/svg" width="26.914" height="26.914" viewBox="0 0 26.914 26.914">
  <g id="Icon_material-close" data-name="Icon material-close" transform="translate(-7.5 -7.5)" fill="#282828" stroke-linecap="round">
    <path d="M 31.70293617248535 33.70641708374023 L 21.31030654907227 23.31378746032715 L 20.95675659179688 22.96022605895996 L 20.60320663452148 23.31378746032715 L 10.2105770111084 33.70641708374023 L 8.207097053527832 31.70293617248535 L 18.5997371673584 21.31030654907227 L 18.95329666137695 20.95675659179688 L 18.5997371673584 20.60320663452148 L 8.207097053527832 10.21057605743408 L 10.21057605743408 8.207097053527832 L 20.60320663452148 18.5997371673584 L 20.95675659179688 18.95329666137695 L 21.31030654907227 18.5997371673584 L 31.70293617248535 8.207097053527832 L 33.70641708374023 10.2105770111084 L 23.31378746032715 20.60320663452148 L 22.96022605895996 20.95675659179688 L 23.31378746032715 21.31030654907227 L 33.70641708374023 31.70293617248535 L 31.70293617248535 33.70641708374023 Z" stroke="none"/>
    <path d="M 10.2105770111084 8.914215087890625 L 8.914215087890625 10.2105770111084 L 19.66038703918457 20.95675659179688 L 8.914215087890625 31.70293617248535 L 10.2105770111084 32.99929809570312 L 20.95675659179688 22.25311660766602 L 31.70293807983398 32.99929809570312 L 32.99929809570312 31.70293807983398 L 22.25311660766602 20.95675659179688 L 32.99929809570312 10.2105770111084 L 31.70293617248535 8.914215087890625 L 20.95675659179688 19.66038703918457 L 10.2105770111084 8.914215087890625 M 10.2105770111084 7.499996185302734 L 20.95675659179688 18.24617576599121 L 31.70293617248535 7.499996185302734 L 34.41351699829102 10.2105770111084 L 23.66732597351074 20.95675659179688 L 34.41351699829102 31.70293617248535 L 31.70293617248535 34.41351699829102 L 20.95675659179688 23.66732597351074 L 10.2105770111084 34.41351699829102 L 7.499996185302734 31.70293617248535 L 18.24617576599121 20.95675659179688 L 7.499996185302734 10.2105770111084 L 10.2105770111084 7.499996185302734 Z" stroke="none" fill="#000"/>
  </g>
</svg>
